# xmcd
# 
# Track frame offsets:
#     150
#     19587
#     44247
#     76175
#     90402
#     122075
#     141502
#     161795
#     188610
#     213257
#     230312
#     256845
#     277735
# 
# Disc length: 3982
# 
# Revision: 3
# Processed by: cddbd v1.5.2PL0 Copyright (c) Steve Scherf et al.
# Submitted via: fre:ac v1.0.31
# 
DISCID=a70f8c0d
DTITLE=Railroad Earth - Bird In A House
DYEAR=2002
DGENRE=Country
TTITLE0=Drag Him Down
TTITLE1=Bird In A House
TTITLE2=Like A Buddha
TTITLE3=Pack A Day
TTITLE4=Mountain Time
TTITLE5=Give That Boy A Hand
TTITLE6=Peace On Earth
TTITLE7=Walk On By
TTITLE8=Mighty River
TTITLE9=Lois Ann
TTITLE10=Came Up Smilin'
TTITLE11=Dandelion Wine
TTITLE12=Saddle Of The Sun
EXTD=
EXTT0=
EXTT1=
EXTT2=
EXTT3=
EXTT4=
EXTT5=
EXTT6=
EXTT7=
EXTT8=
EXTT9=
EXTT10=
EXTT11=
EXTT12=
PLAYORDER=
